<?xml version="1.0" encoding="UTF-8"?>
<svg xmlns="http://www.w3.org/2000/svg"
     width="590"
     height="478"
     viewBox="0 0 590 478">

<defs>
  <style type="text/css">
    .label { font-size: 12px; font-family: Arial, sans-serif; }
    .tick { font-size: 10px; font-family: Arial, sans-serif; }
    rect { stroke: #333333; stroke-width: 1; }
  </style>
</defs>

<rect x="0" y="0" width="590" height="478"
      fill="#FFFFFF" stroke="#000000" stroke-width="2"/>

<line x1="150" y1="80" x2="150" y2="280" stroke="#CCCCCC" stroke-width="0.5"/>

<line x1="150" y1="80" x2="150" y2="80" stroke="#CCCCCC" stroke-width="0.5"/>
<line x1="150" y1="120" x2="150" y2="120" stroke="#CCCCCC" stroke-width="0.5"/>
<line x1="150" y1="160" x2="150" y2="160" stroke="#CCCCCC" stroke-width="0.5"/>
<line x1="150" y1="200" x2="150" y2="200" stroke="#CCCCCC" stroke-width="0.5"/>
<line x1="150" y1="240" x2="150" y2="240" stroke="#CCCCCC" stroke-width="0.5"/>
<line x1="150" y1="280" x2="150" y2="280" stroke="#CCCCCC" stroke-width="0.5"/>

<text x="150" y="70" class="tick" text-anchor="middle">0</text>

<text x="140" y="105.0" class="label" text-anchor="end">t5</text>
<text x="140" y="145.0" class="label" text-anchor="end">t4</text>
<text x="140" y="185.0" class="label" text-anchor="end">t3</text>
<text x="140" y="225.0" class="label" text-anchor="end">t2</text>
<text x="140" y="265.0" class="label" text-anchor="end">t1</text>
<line x1="150" y1="288" x2="150" y2="288" stroke="#CCCCCC" stroke-width="1"/>
<text x="150" y="302" font-size="11" font-family="Arial" font-weight="bold" fill="#555555">Ociosidade de CPUs:</text>
<text x="150" y="348" font-size="11" font-family="Arial" font-weight="bold" fill="#333333">Legenda:</text>
<rect x="150" y="356" width="16" height="14" fill="#4CAF50" stroke="#333333" stroke-width="1"/>
<text x="172" y="368" font-size="10" font-family="Arial" fill="#333333">Executando</text>
<rect x="350" y="356" width="16" height="14" fill="none" stroke="#4CAF50" stroke-width="1.5" stroke-dasharray="3,2"/>
<text x="372" y="368" font-size="10" font-family="Arial" fill="#333333">Pronta</text>
<rect x="150" y="376" width="16" height="14" fill="#000000" stroke="#333333" stroke-width="1"/>
<text x="172" y="388" font-size="10" font-family="Arial" fill="#333333">Suspensa</text>
<rect x="350" y="376" width="16" height="14" fill="#EF9A9A" stroke="#BBBBBB" stroke-width="1"/>
<text x="372" y="388" font-size="10" font-family="Arial" fill="#333333">CPU ociosa</text>
<circle cx="158" cy="401" r="5" fill="#FFFFFF" stroke="#000000" stroke-width="1.2"/>
<text x="172" y="408" font-size="10" font-family="Arial" fill="#333333">Ingresso</text>
<line x1="350" y1="396" x2="366" y2="410" stroke="#CC0000" stroke-width="2" stroke-linecap="round"/>
<line x1="366" y1="396" x2="350" y2="410" stroke="#CC0000" stroke-width="2" stroke-linecap="round"/>
<text x="372" y="408" font-size="10" font-family="Arial" fill="#333333">Conclusao</text>
</svg>