<?xml version="1.0" encoding="UTF-8"?>
<svg xmlns="http://www.w3.org/2000/svg"
     width="590"
     height="360"
     viewBox="0 0 590 360">

<defs>
  <style type="text/css">
    .label { font-size: 12px; font-family: Arial, sans-serif; }
    .tick { font-size: 10px; font-family: Arial, sans-serif; }
    rect { stroke: #333333; stroke-width: 1; }
  </style>
</defs>

<rect x="0" y="0" width="590" height="360"
      fill="#FFFFFF" stroke="#000000" stroke-width="2"/>

<line x1="150" y1="80" x2="150" y2="280" stroke="#CCCCCC" stroke-width="0.5"/>
<line x1="180" y1="80" x2="180" y2="280" stroke="#CCCCCC" stroke-width="0.5"/>
<line x1="210" y1="80" x2="210" y2="280" stroke="#CCCCCC" stroke-width="0.5"/>
<line x1="240" y1="80" x2="240" y2="280" stroke="#CCCCCC" stroke-width="0.5"/>
<line x1="270" y1="80" x2="270" y2="280" stroke="#CCCCCC" stroke-width="0.5"/>
<line x1="300" y1="80" x2="300" y2="280" stroke="#CCCCCC" stroke-width="0.5"/>
<line x1="330" y1="80" x2="330" y2="280" stroke="#CCCCCC" stroke-width="0.5"/>
<line x1="360" y1="80" x2="360" y2="280" stroke="#CCCCCC" stroke-width="0.5"/>
<line x1="390" y1="80" x2="390" y2="280" stroke="#CCCCCC" stroke-width="0.5"/>
<line x1="420" y1="80" x2="420" y2="280" stroke="#CCCCCC" stroke-width="0.5"/>
<line x1="450" y1="80" x2="450" y2="280" stroke="#CCCCCC" stroke-width="0.5"/>
<line x1="480" y1="80" x2="480" y2="280" stroke="#CCCCCC" stroke-width="0.5"/>
<line x1="510" y1="80" x2="510" y2="280" stroke="#CCCCCC" stroke-width="0.5"/>
<line x1="540" y1="80" x2="540" y2="280" stroke="#CCCCCC" stroke-width="0.5"/>
<line x1="570" y1="80" x2="570" y2="280" stroke="#CCCCCC" stroke-width="0.5"/>

<line x1="150" y1="80" x2="570" y2="80" stroke="#CCCCCC" stroke-width="0.5"/>
<line x1="150" y1="120" x2="570" y2="120" stroke="#CCCCCC" stroke-width="0.5"/>
<line x1="150" y1="160" x2="570" y2="160" stroke="#CCCCCC" stroke-width="0.5"/>
<line x1="150" y1="200" x2="570" y2="200" stroke="#CCCCCC" stroke-width="0.5"/>
<line x1="150" y1="240" x2="570" y2="240" stroke="#CCCCCC" stroke-width="0.5"/>
<line x1="150" y1="280" x2="570" y2="280" stroke="#CCCCCC" stroke-width="0.5"/>

<rect x="152" y="202" width="26" height="36" fill="#00FF00"/>
<text x="165.0" y="224.0" font-size="10" font-family="Arial" text-anchor="middle" fill="#FFFFFF" font-weight="bold">P0</text>
<circle cx="157" cy="207" r="4" fill="#00FF00" stroke="#000"/>
<rect x="152" y="242" width="26" height="36" fill="none" stroke="#FF0000" stroke-width="2" stroke-dasharray="2,2"/>
<circle cx="157" cy="247" r="4" fill="#00FF00" stroke="#000"/>
<rect x="182" y="162" width="26" height="36" fill="none" stroke="#0000FF" stroke-width="2" stroke-dasharray="2,2"/>
<circle cx="187" cy="167" r="4" fill="#00FF00" stroke="#000"/>
<rect x="182" y="202" width="26" height="36" fill="#00FF00"/>
<text x="195.0" y="224.0" font-size="10" font-family="Arial" text-anchor="middle" fill="#FFFFFF" font-weight="bold">P0</text>
<rect x="182" y="242" width="26" height="36" fill="none" stroke="#FF0000" stroke-width="2" stroke-dasharray="2,2"/>
<rect x="212" y="162" width="26" height="36" fill="#0000FF"/>
<text x="225.0" y="184.0" font-size="10" font-family="Arial" text-anchor="middle" fill="#FFFFFF" font-weight="bold">P0</text>
<text x="225.0" y="225.0" font-size="14" text-anchor="middle">❌</text>
<rect x="212" y="242" width="26" height="36" fill="none" stroke="#FF0000" stroke-width="2" stroke-dasharray="2,2"/>
<rect x="242" y="122" width="26" height="36" fill="#FFFF00"/>
<text x="255.0" y="144.0" font-size="10" font-family="Arial" text-anchor="middle" fill="#FFFFFF" font-weight="bold">P0</text>
<circle cx="247" cy="127" r="4" fill="#00FF00" stroke="#000"/>
<rect x="242" y="162" width="26" height="36" fill="none" stroke="#0000FF" stroke-width="2" stroke-dasharray="2,2"/>
<rect x="242" y="242" width="26" height="36" fill="none" stroke="#FF0000" stroke-width="2" stroke-dasharray="2,2"/>
<text x="285.0" y="145.0" font-size="14" text-anchor="middle">❌</text>
<rect x="272" y="162" width="26" height="36" fill="#0000FF"/>
<text x="285.0" y="184.0" font-size="10" font-family="Arial" text-anchor="middle" fill="#FFFFFF" font-weight="bold">P0</text>
<rect x="272" y="242" width="26" height="36" fill="none" stroke="#FF0000" stroke-width="2" stroke-dasharray="2,2"/>
<rect x="302" y="82" width="26" height="36" fill="none" stroke="#FF00FF" stroke-width="2" stroke-dasharray="2,2"/>
<circle cx="307" cy="87" r="4" fill="#00FF00" stroke="#000"/>
<rect x="302" y="162" width="26" height="36" fill="#0000FF"/>
<text x="315.0" y="184.0" font-size="10" font-family="Arial" text-anchor="middle" fill="#FFFFFF" font-weight="bold">P0</text>
<rect x="302" y="242" width="26" height="36" fill="none" stroke="#FF0000" stroke-width="2" stroke-dasharray="2,2"/>
<rect x="332" y="82" width="26" height="36" fill="none" stroke="#FF00FF" stroke-width="2" stroke-dasharray="2,2"/>
<rect x="332" y="162" width="26" height="36" fill="#0000FF"/>
<text x="345.0" y="184.0" font-size="10" font-family="Arial" text-anchor="middle" fill="#FFFFFF" font-weight="bold">P0</text>
<rect x="332" y="242" width="26" height="36" fill="none" stroke="#FF0000" stroke-width="2" stroke-dasharray="2,2"/>
<rect x="362" y="82" width="26" height="36" fill="#FF00FF"/>
<text x="375.0" y="104.0" font-size="10" font-family="Arial" text-anchor="middle" fill="#FFFFFF" font-weight="bold">P0</text>
<text x="375.0" y="185.0" font-size="14" text-anchor="middle">❌</text>
<rect x="362" y="242" width="26" height="36" fill="none" stroke="#FF0000" stroke-width="2" stroke-dasharray="2,2"/>
<rect x="392" y="82" width="26" height="36" fill="#FF00FF"/>
<text x="405.0" y="104.0" font-size="10" font-family="Arial" text-anchor="middle" fill="#FFFFFF" font-weight="bold">P0</text>
<rect x="392" y="242" width="26" height="36" fill="none" stroke="#FF0000" stroke-width="2" stroke-dasharray="2,2"/>
<text x="435.0" y="105.0" font-size="14" text-anchor="middle">❌</text>
<rect x="422" y="242" width="26" height="36" fill="#FF0000"/>
<text x="435.0" y="264.0" font-size="10" font-family="Arial" text-anchor="middle" fill="#FFFFFF" font-weight="bold">P0</text>
<rect x="452" y="242" width="26" height="36" fill="#FF0000"/>
<text x="465.0" y="264.0" font-size="10" font-family="Arial" text-anchor="middle" fill="#FFFFFF" font-weight="bold">P0</text>
<rect x="482" y="242" width="26" height="36" fill="#FF0000"/>
<text x="495.0" y="264.0" font-size="10" font-family="Arial" text-anchor="middle" fill="#FFFFFF" font-weight="bold">P0</text>
<rect x="512" y="242" width="26" height="36" fill="#FF0000"/>
<text x="525.0" y="264.0" font-size="10" font-family="Arial" text-anchor="middle" fill="#FFFFFF" font-weight="bold">P0</text>
<rect x="542" y="242" width="26" height="36" fill="#FF0000"/>
<text x="555.0" y="264.0" font-size="10" font-family="Arial" text-anchor="middle" fill="#FFFFFF" font-weight="bold">P0</text>
<text x="150" y="70" class="tick" text-anchor="middle">0</text>
<text x="180" y="70" class="tick" text-anchor="middle">1</text>
<text x="210" y="70" class="tick" text-anchor="middle">2</text>
<text x="240" y="70" class="tick" text-anchor="middle">3</text>
<text x="270" y="70" class="tick" text-anchor="middle">4</text>
<text x="300" y="70" class="tick" text-anchor="middle">5</text>
<text x="330" y="70" class="tick" text-anchor="middle">6</text>
<text x="360" y="70" class="tick" text-anchor="middle">7</text>
<text x="390" y="70" class="tick" text-anchor="middle">8</text>
<text x="420" y="70" class="tick" text-anchor="middle">9</text>
<text x="450" y="70" class="tick" text-anchor="middle">10</text>
<text x="480" y="70" class="tick" text-anchor="middle">11</text>
<text x="510" y="70" class="tick" text-anchor="middle">12</text>
<text x="540" y="70" class="tick" text-anchor="middle">13</text>
<text x="570" y="70" class="tick" text-anchor="middle">14</text>

<text x="140" y="105.0" class="label" text-anchor="end">t5</text>
<text x="140" y="145.0" class="label" text-anchor="end">t4</text>
<text x="140" y="185.0" class="label" text-anchor="end">t3</text>
<text x="140" y="225.0" class="label" text-anchor="end">t2</text>
<text x="140" y="265.0" class="label" text-anchor="end">t1</text>

</svg>