<?xml version="1.0" encoding="UTF-8"?>
<svg xmlns="http://www.w3.org/2000/svg"
     width="770"
     height="398"
     viewBox="0 0 770 398">

<defs>
  <style type="text/css">
    .label { font-size: 12px; font-family: Arial, sans-serif; }
    .tick { font-size: 10px; font-family: Arial, sans-serif; }
    rect { stroke: #333333; stroke-width: 1; }
  </style>
</defs>

<rect x="0" y="0" width="770" height="398"
      fill="#FFFFFF" stroke="#000000" stroke-width="2"/>

<line x1="150" y1="80" x2="150" y2="200" stroke="#CCCCCC" stroke-width="0.5"/>
<line x1="180" y1="80" x2="180" y2="200" stroke="#CCCCCC" stroke-width="0.5"/>
<line x1="210" y1="80" x2="210" y2="200" stroke="#CCCCCC" stroke-width="0.5"/>
<line x1="240" y1="80" x2="240" y2="200" stroke="#CCCCCC" stroke-width="0.5"/>
<line x1="270" y1="80" x2="270" y2="200" stroke="#CCCCCC" stroke-width="0.5"/>
<line x1="300" y1="80" x2="300" y2="200" stroke="#CCCCCC" stroke-width="0.5"/>
<line x1="330" y1="80" x2="330" y2="200" stroke="#CCCCCC" stroke-width="0.5"/>
<line x1="360" y1="80" x2="360" y2="200" stroke="#CCCCCC" stroke-width="0.5"/>
<line x1="390" y1="80" x2="390" y2="200" stroke="#CCCCCC" stroke-width="0.5"/>
<line x1="420" y1="80" x2="420" y2="200" stroke="#CCCCCC" stroke-width="0.5"/>
<line x1="450" y1="80" x2="450" y2="200" stroke="#CCCCCC" stroke-width="0.5"/>
<line x1="480" y1="80" x2="480" y2="200" stroke="#CCCCCC" stroke-width="0.5"/>
<line x1="510" y1="80" x2="510" y2="200" stroke="#CCCCCC" stroke-width="0.5"/>
<line x1="540" y1="80" x2="540" y2="200" stroke="#CCCCCC" stroke-width="0.5"/>
<line x1="570" y1="80" x2="570" y2="200" stroke="#CCCCCC" stroke-width="0.5"/>
<line x1="600" y1="80" x2="600" y2="200" stroke="#CCCCCC" stroke-width="0.5"/>
<line x1="630" y1="80" x2="630" y2="200" stroke="#CCCCCC" stroke-width="0.5"/>
<line x1="660" y1="80" x2="660" y2="200" stroke="#CCCCCC" stroke-width="0.5"/>
<line x1="690" y1="80" x2="690" y2="200" stroke="#CCCCCC" stroke-width="0.5"/>
<line x1="720" y1="80" x2="720" y2="200" stroke="#CCCCCC" stroke-width="0.5"/>
<line x1="750" y1="80" x2="750" y2="200" stroke="#CCCCCC" stroke-width="0.5"/>

<line x1="150" y1="80" x2="750" y2="80" stroke="#CCCCCC" stroke-width="0.5"/>
<line x1="150" y1="120" x2="750" y2="120" stroke="#CCCCCC" stroke-width="0.5"/>
<line x1="150" y1="160" x2="750" y2="160" stroke="#CCCCCC" stroke-width="0.5"/>
<line x1="150" y1="200" x2="750" y2="200" stroke="#CCCCCC" stroke-width="0.5"/>

<rect x="160.0" y="55" width="10" height="10" rx="2" fill="#fff" stroke="#333" stroke-width="1.2"/>
<circle cx="162.2" cy="57.2" r="1.2" fill="#333"/>
<circle cx="165.0" cy="60.0" r="1.2" fill="#333"/>
<circle cx="167.8" cy="62.8" r="1.2" fill="#333"/>
<rect x="152" y="82" width="26" height="36" fill="#0000FF"/>
<text x="165.0" y="104.0" font-size="10" font-family="Arial" text-anchor="middle" fill="#FFFFFF" font-weight="bold">P1</text>
<circle cx="157" cy="87" r="4" fill="#FFFFFF" stroke="#000" stroke-width="1.2"/>
<rect x="152" y="122" width="26" height="36" fill="none" stroke="#00FF00" stroke-width="2" stroke-dasharray="2,2"/>
<circle cx="157" cy="127" r="4" fill="#FFFFFF" stroke="#000" stroke-width="1.2"/>
<rect x="152" y="162" width="26" height="36" fill="#FF0000"/>
<text x="165.0" y="184.0" font-size="10" font-family="Arial" text-anchor="middle" fill="#FFFFFF" font-weight="bold">P0</text>
<circle cx="157" cy="167" r="4" fill="#FFFFFF" stroke="#000" stroke-width="1.2"/>
<rect x="182" y="82" width="26" height="36" fill="#0000FF"/>
<text x="195.0" y="104.0" font-size="10" font-family="Arial" text-anchor="middle" fill="#FFFFFF" font-weight="bold">P1</text>
<rect x="182" y="122" width="26" height="36" fill="none" stroke="#00FF00" stroke-width="2" stroke-dasharray="2,2"/>
<rect x="182" y="162" width="26" height="36" fill="#FF0000"/>
<text x="195.0" y="184.0" font-size="10" font-family="Arial" text-anchor="middle" fill="#FFFFFF" font-weight="bold">P0</text>
<rect x="212" y="82" width="26" height="36" fill="#0000FF"/>
<text x="225.0" y="104.0" font-size="10" font-family="Arial" text-anchor="middle" fill="#FFFFFF" font-weight="bold">P1</text>
<rect x="212" y="122" width="26" height="36" fill="none" stroke="#00FF00" stroke-width="2" stroke-dasharray="2,2"/>
<rect x="212" y="162" width="26" height="36" fill="#FF0000"/>
<text x="225.0" y="184.0" font-size="10" font-family="Arial" text-anchor="middle" fill="#FFFFFF" font-weight="bold">P0</text>
<rect x="242" y="82" width="26" height="36" fill="#0000FF"/>
<text x="255.0" y="104.0" font-size="10" font-family="Arial" text-anchor="middle" fill="#FFFFFF" font-weight="bold">P1</text>
<rect x="242" y="122" width="26" height="36" fill="none" stroke="#00FF00" stroke-width="2" stroke-dasharray="2,2"/>
<rect x="242" y="162" width="26" height="36" fill="#FF0000"/>
<text x="255.0" y="184.0" font-size="10" font-family="Arial" text-anchor="middle" fill="#FFFFFF" font-weight="bold">P0</text>
<rect x="272" y="82" width="26" height="36" fill="#0000FF"/>
<text x="285.0" y="104.0" font-size="10" font-family="Arial" text-anchor="middle" fill="#FFFFFF" font-weight="bold">P1</text>
<rect x="272" y="122" width="26" height="36" fill="none" stroke="#00FF00" stroke-width="2" stroke-dasharray="2,2"/>
<rect x="272" y="162" width="26" height="36" fill="#FF0000"/>
<text x="285.0" y="184.0" font-size="10" font-family="Arial" text-anchor="middle" fill="#FFFFFF" font-weight="bold">P0</text>
<rect x="310.0" y="55" width="10" height="10" rx="2" fill="#fff" stroke="#333" stroke-width="1.2"/>
<circle cx="312.2" cy="57.2" r="1.2" fill="#333"/>
<circle cx="315.0" cy="60.0" r="1.2" fill="#333"/>
<circle cx="317.8" cy="62.8" r="1.2" fill="#333"/>
<rect x="302" y="82" width="26" height="36" fill="#0000FF"/>
<text x="315.0" y="104.0" font-size="10" font-family="Arial" text-anchor="middle" fill="#FFFFFF" font-weight="bold">P1</text>
<rect x="302" y="122" width="26" height="36" fill="none" stroke="#00FF00" stroke-width="2" stroke-dasharray="2,2"/>
<rect x="302" y="162" width="26" height="36" fill="#FF0000"/>
<text x="315.0" y="184.0" font-size="10" font-family="Arial" text-anchor="middle" fill="#FFFFFF" font-weight="bold">P0</text>
<rect x="332" y="82" width="26" height="36" fill="#0000FF"/>
<text x="345.0" y="104.0" font-size="10" font-family="Arial" text-anchor="middle" fill="#FFFFFF" font-weight="bold">P1</text>
<rect x="332" y="122" width="26" height="36" fill="none" stroke="#00FF00" stroke-width="2" stroke-dasharray="2,2"/>
<rect x="332" y="162" width="26" height="36" fill="#FF0000"/>
<text x="345.0" y="184.0" font-size="10" font-family="Arial" text-anchor="middle" fill="#FFFFFF" font-weight="bold">P0</text>
<rect x="362" y="82" width="26" height="36" fill="#0000FF"/>
<text x="375.0" y="104.0" font-size="10" font-family="Arial" text-anchor="middle" fill="#FFFFFF" font-weight="bold">P1</text>
<rect x="362" y="122" width="26" height="36" fill="none" stroke="#00FF00" stroke-width="2" stroke-dasharray="2,2"/>
<rect x="362" y="162" width="26" height="36" fill="#FF0000"/>
<text x="375.0" y="184.0" font-size="10" font-family="Arial" text-anchor="middle" fill="#FFFFFF" font-weight="bold">P0</text>
<rect x="392" y="82" width="26" height="36" fill="#0000FF"/>
<text x="405.0" y="104.0" font-size="10" font-family="Arial" text-anchor="middle" fill="#FFFFFF" font-weight="bold">P1</text>
<rect x="392" y="122" width="26" height="36" fill="none" stroke="#00FF00" stroke-width="2" stroke-dasharray="2,2"/>
<rect x="392" y="162" width="26" height="36" fill="#FF0000"/>
<text x="405.0" y="184.0" font-size="10" font-family="Arial" text-anchor="middle" fill="#FFFFFF" font-weight="bold">P0</text>
<rect x="422" y="82" width="26" height="36" fill="#0000FF"/>
<text x="435.0" y="104.0" font-size="10" font-family="Arial" text-anchor="middle" fill="#FFFFFF" font-weight="bold">P1</text>
<rect x="422" y="122" width="26" height="36" fill="none" stroke="#00FF00" stroke-width="2" stroke-dasharray="2,2"/>
<rect x="422" y="162" width="26" height="36" fill="#FF0000"/>
<text x="435.0" y="184.0" font-size="10" font-family="Arial" text-anchor="middle" fill="#FFFFFF" font-weight="bold">P0</text>
<line x1="452" y1="82" x2="478" y2="118" stroke="#CC0000" stroke-width="2.5" stroke-linecap="round"/>
<line x1="478" y1="82" x2="452" y2="118" stroke="#CC0000" stroke-width="2.5" stroke-linecap="round"/>
<rect x="452" y="122" width="26" height="36" fill="#00FF00"/>
<text x="465.0" y="144.0" font-size="10" font-family="Arial" text-anchor="middle" fill="#FFFFFF" font-weight="bold">P0</text>
<line x1="452" y1="162" x2="478" y2="198" stroke="#CC0000" stroke-width="2.5" stroke-linecap="round"/>
<line x1="478" y1="162" x2="452" y2="198" stroke="#CC0000" stroke-width="2.5" stroke-linecap="round"/>
<rect x="482" y="122" width="26" height="36" fill="#00FF00"/>
<text x="495.0" y="144.0" font-size="10" font-family="Arial" text-anchor="middle" fill="#FFFFFF" font-weight="bold">P0</text>
<rect x="512" y="122" width="26" height="36" fill="#00FF00"/>
<text x="525.0" y="144.0" font-size="10" font-family="Arial" text-anchor="middle" fill="#FFFFFF" font-weight="bold">P0</text>
<rect x="542" y="122" width="26" height="36" fill="#00FF00"/>
<text x="555.0" y="144.0" font-size="10" font-family="Arial" text-anchor="middle" fill="#FFFFFF" font-weight="bold">P0</text>
<rect x="572" y="122" width="26" height="36" fill="#00FF00"/>
<text x="585.0" y="144.0" font-size="10" font-family="Arial" text-anchor="middle" fill="#FFFFFF" font-weight="bold">P0</text>
<rect x="602" y="122" width="26" height="36" fill="#00FF00"/>
<text x="615.0" y="144.0" font-size="10" font-family="Arial" text-anchor="middle" fill="#FFFFFF" font-weight="bold">P0</text>
<rect x="632" y="122" width="26" height="36" fill="#00FF00"/>
<text x="645.0" y="144.0" font-size="10" font-family="Arial" text-anchor="middle" fill="#FFFFFF" font-weight="bold">P0</text>
<rect x="662" y="122" width="26" height="36" fill="#00FF00"/>
<text x="675.0" y="144.0" font-size="10" font-family="Arial" text-anchor="middle" fill="#FFFFFF" font-weight="bold">P0</text>
<rect x="692" y="122" width="26" height="36" fill="#00FF00"/>
<text x="705.0" y="144.0" font-size="10" font-family="Arial" text-anchor="middle" fill="#FFFFFF" font-weight="bold">P0</text>
<rect x="722" y="122" width="26" height="36" fill="#00FF00"/>
<text x="735.0" y="144.0" font-size="10" font-family="Arial" text-anchor="middle" fill="#FFFFFF" font-weight="bold">P0</text>
<text x="150" y="70" class="tick" text-anchor="middle">0</text>
<text x="210" y="70" class="tick" text-anchor="middle">2</text>
<text x="270" y="70" class="tick" text-anchor="middle">4</text>
<text x="330" y="70" class="tick" text-anchor="middle">6</text>
<text x="390" y="70" class="tick" text-anchor="middle">8</text>
<text x="450" y="70" class="tick" text-anchor="middle">10</text>
<text x="510" y="70" class="tick" text-anchor="middle">12</text>
<text x="570" y="70" class="tick" text-anchor="middle">14</text>
<text x="630" y="70" class="tick" text-anchor="middle">16</text>
<text x="690" y="70" class="tick" text-anchor="middle">18</text>
<text x="750" y="70" class="tick" text-anchor="middle">20</text>

<text x="140" y="105.0" class="label" text-anchor="end">T3</text>
<text x="140" y="145.0" class="label" text-anchor="end">T2</text>
<text x="140" y="185.0" class="label" text-anchor="end">T1</text>
<line x1="150" y1="208" x2="750" y2="208" stroke="#CCCCCC" stroke-width="1"/>
<text x="150" y="222" font-size="11" font-family="Arial" font-weight="bold" fill="#555">Ociosidade de CPUs:</text>
<text x="144" y="241" font-size="10" font-family="Arial" text-anchor="end" fill="#333">P0</text>
<rect x="150" y="228" width="30" height="18" fill="#E8F5E9" stroke="#BBBBBB" stroke-width="0.5"/>
<rect x="180" y="228" width="30" height="18" fill="#E8F5E9" stroke="#BBBBBB" stroke-width="0.5"/>
<rect x="210" y="228" width="30" height="18" fill="#E8F5E9" stroke="#BBBBBB" stroke-width="0.5"/>
<rect x="240" y="228" width="30" height="18" fill="#E8F5E9" stroke="#BBBBBB" stroke-width="0.5"/>
<rect x="270" y="228" width="30" height="18" fill="#E8F5E9" stroke="#BBBBBB" stroke-width="0.5"/>
<rect x="300" y="228" width="30" height="18" fill="#E8F5E9" stroke="#BBBBBB" stroke-width="0.5"/>
<rect x="330" y="228" width="30" height="18" fill="#E8F5E9" stroke="#BBBBBB" stroke-width="0.5"/>
<rect x="360" y="228" width="30" height="18" fill="#E8F5E9" stroke="#BBBBBB" stroke-width="0.5"/>
<rect x="390" y="228" width="30" height="18" fill="#E8F5E9" stroke="#BBBBBB" stroke-width="0.5"/>
<rect x="420" y="228" width="30" height="18" fill="#E8F5E9" stroke="#BBBBBB" stroke-width="0.5"/>
<rect x="450" y="228" width="30" height="18" fill="#E8F5E9" stroke="#BBBBBB" stroke-width="0.5"/>
<rect x="480" y="228" width="30" height="18" fill="#E8F5E9" stroke="#BBBBBB" stroke-width="0.5"/>
<rect x="510" y="228" width="30" height="18" fill="#E8F5E9" stroke="#BBBBBB" stroke-width="0.5"/>
<rect x="540" y="228" width="30" height="18" fill="#E8F5E9" stroke="#BBBBBB" stroke-width="0.5"/>
<rect x="570" y="228" width="30" height="18" fill="#E8F5E9" stroke="#BBBBBB" stroke-width="0.5"/>
<rect x="600" y="228" width="30" height="18" fill="#E8F5E9" stroke="#BBBBBB" stroke-width="0.5"/>
<rect x="630" y="228" width="30" height="18" fill="#E8F5E9" stroke="#BBBBBB" stroke-width="0.5"/>
<rect x="660" y="228" width="30" height="18" fill="#E8F5E9" stroke="#BBBBBB" stroke-width="0.5"/>
<rect x="690" y="228" width="30" height="18" fill="#E8F5E9" stroke="#BBBBBB" stroke-width="0.5"/>
<rect x="720" y="228" width="30" height="18" fill="#E8F5E9" stroke="#BBBBBB" stroke-width="0.5"/>
<text x="756" y="241" font-size="10" font-family="Arial" fill="#888">0 ticks ociosa</text>
<text x="144" y="265" font-size="10" font-family="Arial" text-anchor="end" fill="#333">P1</text>
<rect x="150" y="252" width="30" height="18" fill="#E8F5E9" stroke="#BBBBBB" stroke-width="0.5"/>
<rect x="180" y="252" width="30" height="18" fill="#E8F5E9" stroke="#BBBBBB" stroke-width="0.5"/>
<rect x="210" y="252" width="30" height="18" fill="#E8F5E9" stroke="#BBBBBB" stroke-width="0.5"/>
<rect x="240" y="252" width="30" height="18" fill="#E8F5E9" stroke="#BBBBBB" stroke-width="0.5"/>
<rect x="270" y="252" width="30" height="18" fill="#E8F5E9" stroke="#BBBBBB" stroke-width="0.5"/>
<rect x="300" y="252" width="30" height="18" fill="#E8F5E9" stroke="#BBBBBB" stroke-width="0.5"/>
<rect x="330" y="252" width="30" height="18" fill="#E8F5E9" stroke="#BBBBBB" stroke-width="0.5"/>
<rect x="360" y="252" width="30" height="18" fill="#E8F5E9" stroke="#BBBBBB" stroke-width="0.5"/>
<rect x="390" y="252" width="30" height="18" fill="#E8F5E9" stroke="#BBBBBB" stroke-width="0.5"/>
<rect x="420" y="252" width="30" height="18" fill="#E8F5E9" stroke="#BBBBBB" stroke-width="0.5"/>
<rect x="450" y="252" width="30" height="18" fill="#EF9A9A" stroke="#BBBBBB" stroke-width="0.5"/>
<rect x="480" y="252" width="30" height="18" fill="#EF9A9A" stroke="#BBBBBB" stroke-width="0.5"/>
<rect x="510" y="252" width="30" height="18" fill="#EF9A9A" stroke="#BBBBBB" stroke-width="0.5"/>
<rect x="540" y="252" width="30" height="18" fill="#EF9A9A" stroke="#BBBBBB" stroke-width="0.5"/>
<rect x="570" y="252" width="30" height="18" fill="#EF9A9A" stroke="#BBBBBB" stroke-width="0.5"/>
<rect x="600" y="252" width="30" height="18" fill="#EF9A9A" stroke="#BBBBBB" stroke-width="0.5"/>
<rect x="630" y="252" width="30" height="18" fill="#EF9A9A" stroke="#BBBBBB" stroke-width="0.5"/>
<rect x="660" y="252" width="30" height="18" fill="#EF9A9A" stroke="#BBBBBB" stroke-width="0.5"/>
<rect x="690" y="252" width="30" height="18" fill="#EF9A9A" stroke="#BBBBBB" stroke-width="0.5"/>
<rect x="720" y="252" width="30" height="18" fill="#EF9A9A" stroke="#BBBBBB" stroke-width="0.5"/>
<text x="756" y="265" font-size="10" font-family="Arial" fill="#888">10 ticks ociosa</text>
<text x="150" y="292" font-size="11" font-family="Arial" font-weight="bold" fill="#333">Legenda:</text>
<rect x="150" y="300" width="16" height="14" fill="#4CAF50" stroke="#333" stroke-width="1"/>
<text x="172" y="312" font-size="10" font-family="Arial" fill="#333">Executando (cor da tarefa)</text>
<rect x="350" y="300" width="16" height="14" fill="none" stroke="#4CAF50" stroke-width="1.5" stroke-dasharray="3,2"/>
<text x="372" y="312" font-size="10" font-family="Arial" fill="#333">Pronta / aguardando CPU</text>
<rect x="150" y="320" width="16" height="14" fill="#000000" stroke="#333" stroke-width="1"/>
<text x="172" y="332" font-size="10" font-family="Arial" fill="#333">Suspensa (bloqueada)</text>
<rect x="350" y="320" width="16" height="14" fill="#EF9A9A" stroke="#BBBBBB" stroke-width="1"/>
<text x="372" y="332" font-size="10" font-family="Arial" fill="#333">CPU ociosa / desligada</text>
<circle cx="158" cy="345" r="5" fill="#FFFFFF" stroke="#000" stroke-width="1.2"/>
<text x="172" y="352" font-size="10" font-family="Arial" fill="#333">Ingresso da tarefa no sistema</text>
<line x1="350" y1="340" x2="366" y2="354" stroke="#CC0000" stroke-width="2" stroke-linecap="round"/>
<line x1="366" y1="340" x2="350" y2="354" stroke="#CC0000" stroke-width="2" stroke-linecap="round"/>
<text x="372" y="352" font-size="10" font-family="Arial" fill="#333">Conclusão da tarefa</text>
<rect x="150" y="359" width="13" height="13" rx="2" fill="#fff" stroke="#333" stroke-width="1.2"/>
<circle cx="153" cy="362" r="1.4" fill="#333"/>
<circle cx="156" cy="365" r="1.4" fill="#333"/>
<circle cx="159" cy="368" r="1.4" fill="#333"/>
<text x="172" y="372" font-size="10" font-family="Arial" fill="#333">Sorteio por empate no escalonamento</text>

</svg>